<svg width="82" height="80" viewBox="0 0 82 80" fill="none" xmlns="http://www.w3.org/2000/svg">
<path d="M0.559372 17.7561C0.918187 16.1942 1.15036 14.6112 1.65692 13.0915C4.25306 5.40861 11.4505 0.174131 19.5344 0.0474903C23.2703 -0.0158301 27.0062 -0.0158301 30.7421 0.0474903C40.0924 0.195238 48.1763 7.47708 49.4005 16.743C49.7804 19.6135 49.5482 22.4207 48.7251 25.1646C48.5351 25.8189 48.3662 26.4943 48.1552 27.1275C47.733 28.415 47.5853 29.4281 48.6406 30.7579C51.089 33.8606 48.7673 38.3774 44.757 38.7151C44.5459 38.7362 44.3348 38.7362 44.0394 38.7573C42.9629 43.4641 40.5356 47.3478 36.6098 50.3872C37.6018 50.9359 38.5094 51.4425 39.417 51.9702C42.7518 53.8698 44.5248 56.7614 44.3982 60.5818C44.2715 64.4654 42.2664 67.2726 38.7204 68.9189C38.2983 69.1089 38.2139 69.3411 38.2772 69.7632C38.636 72.9292 38.9737 76.0952 39.3325 79.2613C39.3536 79.4934 39.3748 79.7256 39.3959 80C29.8556 80 20.3575 80 10.754 80C10.9017 78.5858 11.0283 77.1928 11.1972 75.7997C11.4294 73.7524 11.6404 71.7261 11.9148 69.6788C11.9781 69.1722 11.7038 69.0667 11.366 68.9189C5.64611 66.3017 3.93646 59.2309 7.84121 54.3975C8.36888 53.7432 8.95987 53.1522 9.57197 52.4978C9.31869 52.139 8.98098 51.6747 8.60106 51.147C9.25537 50.6405 9.90968 50.155 10.6273 49.6273C11.0706 50.1972 11.5138 50.7249 11.9781 51.3159C12.5058 51.0204 12.9913 50.746 13.5823 50.4294C11.6615 48.9519 10.0785 47.2423 8.81213 45.2582C7.54572 43.2742 6.68034 41.1002 6.17378 38.7995C4.52745 38.7784 3.04997 38.3774 2.01574 37.111C1.40364 36.3512 1.04483 35.4014 0.580478 34.536C0.580478 33.9661 0.580478 33.3751 0.580478 32.8052C0.939294 31.6021 1.42475 30.5046 2.43788 29.6814C2.54341 29.597 2.60673 29.3015 2.56452 29.1326C1.91021 26.4521 1.2559 23.7926 0.580478 21.1121C0.559372 19.9723 0.559372 18.8747 0.559372 17.7561ZM30.13 50.8726C30.4888 50.746 30.7843 50.6616 31.0798 50.556C37.5174 48.0654 41.7387 41.9656 41.8442 34.9581C41.8865 31.6655 41.8654 28.3728 41.8442 25.0801C41.8442 22.1885 40.3457 20.6899 37.4751 20.6899C34.0558 20.6899 30.6365 20.6688 27.1961 20.6899C23.608 20.7321 20.2731 19.8879 17.1704 18.0938C16.9171 17.946 16.4528 17.946 16.1784 18.0516C14.3632 18.8114 12.5691 19.6346 10.7751 20.4366C9.10762 21.1754 8.30556 22.484 8.30556 24.2992C8.30556 27.9084 8.28446 31.5177 8.30556 35.127C8.36888 42.0078 12.8857 48.3609 19.3655 50.6616C19.5766 50.746 19.8088 50.7882 20.0409 50.8515C20.653 49.4796 21.6873 49.0363 23.0592 49.0786C24.41 49.1208 25.7398 49.1208 27.0906 49.0786C28.4625 49.0152 29.5179 49.4796 30.13 50.8726ZM13.2234 10.9597C13.329 11.0652 13.3923 11.1286 13.4345 11.1919C16.8749 15.8987 21.5184 18.1571 27.3228 18.1149C30.8687 18.0727 34.4358 18.0938 37.9817 18.1149C41.2955 18.136 43.9549 20.4578 44.356 23.7504C44.5248 25.1012 44.4193 26.4732 44.4826 27.8451C44.4826 28.0562 44.6726 28.2673 44.7781 28.4572C44.9469 28.2884 45.2213 28.1406 45.2847 27.9296C45.6646 26.7265 46.0023 25.5023 46.34 24.2992C48.7673 15.7087 44.5037 6.97052 36.3143 3.76228C34.4569 3.04465 32.5362 2.62252 30.531 2.62252C26.3941 2.62252 22.236 2.43256 18.1413 2.79137C9.12873 3.57232 2.39566 11.7406 3.26104 20.7532C3.49322 23.2438 4.35859 25.6711 4.97069 28.0984C5.0129 28.2462 5.26619 28.3306 5.43504 28.4572C5.54057 28.2673 5.73053 28.0984 5.73053 27.9084C5.75164 26.642 5.73053 25.3756 5.75164 24.1092C5.79385 21.2809 7.14469 19.2758 9.69861 18.0727C11.0283 17.4606 12.3792 16.8696 13.73 16.2786C13.8989 16.1942 14.0677 16.0886 14.1732 16.0253C13.1179 14.8011 12.1048 13.6192 11.0494 12.395C11.8515 11.8673 12.5058 11.424 13.2234 10.9597ZM18.669 54.2708C18.669 60.3074 18.669 66.2806 18.669 72.2327C22.9748 72.2327 27.2172 72.2327 31.4808 72.2327C31.4808 71.3673 31.4808 70.5864 31.4808 69.721C29.8345 69.721 28.2304 69.721 26.6263 69.721C23.5658 69.6999 21.2651 67.5259 21.244 64.6131C21.2229 61.6371 23.4602 59.442 26.584 59.3998C27.956 59.3787 29.3279 59.3998 30.6788 59.3998C30.9531 59.3998 31.2275 59.3787 31.5019 59.3576C31.5019 57.6057 31.5019 55.9594 31.5019 54.2708C31.0798 54.2708 30.6999 54.2708 30.3199 54.2708C29.7923 56.2549 29.0957 56.7825 27.0906 56.7825C25.5709 56.7825 24.0301 56.7825 22.5104 56.7825C21.6028 56.7825 20.8641 56.4026 20.3786 55.6428C20.1254 55.2417 19.9987 54.7352 19.8088 54.2497C19.4499 54.2708 19.0911 54.2708 18.669 54.2708ZM33.486 52.139C33.4649 52.2446 33.4226 52.3501 33.4015 52.4345C34.3513 53.4266 34.077 54.6507 34.0981 55.8327C34.1192 56.9936 34.0981 58.1756 34.0981 59.3998C35.9766 59.3365 37.5596 59.7375 38.8471 61.0461C38.235 61.6582 37.6651 62.2281 37.0741 62.8191C35.3856 61.426 33.4437 62.1859 31.5863 61.9748C31.5863 63.7689 31.5863 65.4152 31.5863 67.1038C32.895 67.1038 34.1403 67.1671 35.4067 67.0826C38.5938 66.8927 41.0211 64.782 41.7176 61.7215C42.3719 58.8088 41.0211 55.8327 38.3194 54.2919C37.1163 53.5954 35.8921 52.8989 34.6679 52.2868C34.3091 52.139 33.8659 52.1813 33.486 52.139ZM35.6811 69.7632C35.1323 69.7632 34.6679 69.7632 34.0981 69.7632C34.0981 70.5442 34.0981 71.304 34.0981 72.0638C34.077 73.8579 33.0849 74.871 31.3331 74.8922C27.1539 74.9133 22.9748 74.9133 18.7956 74.8922C17.086 74.8922 16.0729 73.8157 16.0518 72.1061C16.0518 71.3251 16.0518 70.5442 16.0518 69.7843C15.4608 69.7843 14.9964 69.7843 14.4687 69.7843C14.1944 72.3593 13.8989 74.8922 13.6245 77.4461C21.3285 77.4461 28.9269 77.4461 36.5253 77.4461C36.2509 74.8288 35.9766 72.296 35.6811 69.7632ZM11.2816 54.7563C8.74881 56.2338 7.65125 59.7375 8.74881 62.6924C9.84636 65.6685 13.0546 67.6103 16.0095 67.0404C16.0095 65.373 16.0095 63.7056 16.0095 61.7848C14.9542 62.0803 14.0044 62.3547 13.0124 62.6291C12.548 62.1648 11.9781 61.5949 11.2183 60.835C12.3792 60.2863 13.4978 59.7797 14.6587 59.2309C13.5612 57.8168 12.4214 56.2971 11.2816 54.7563ZM28.9269 67.0615C28.9269 65.3519 28.9269 63.7056 28.9269 61.9959C28.6314 61.9959 28.357 61.9959 28.1037 61.9959C27.3861 61.9959 26.6896 61.9537 25.9719 62.0381C24.7689 62.1648 23.8402 63.2412 23.7768 64.4654C23.7135 65.6685 24.5578 66.8927 25.7398 67.0615C26.774 67.1671 27.8293 67.0615 28.9269 67.0615ZM22.5526 51.7169C22.5526 52.5823 22.5526 53.3843 22.5526 54.2075C24.2623 54.2075 25.9297 54.2075 27.6183 54.2075C27.6183 53.3632 27.6183 52.5612 27.6183 51.7169C25.9297 51.7169 24.2834 51.7169 22.5526 51.7169ZM5.70943 31.0956C4.31638 31.0323 3.17661 32.1298 3.1344 33.544C3.09219 34.9792 4.25306 36.1401 5.70943 36.0979C5.70943 34.4304 5.70943 32.763 5.70943 31.0956ZM44.4615 31.0534C44.4615 32.763 44.4615 34.4093 44.4615 36.0557C45.7912 36.1612 46.931 35.1059 47.0154 33.7339C47.0787 32.2775 46.0023 31.0956 44.4615 31.0534ZM16.8538 52.3501C15.3552 51.6747 14.6587 53.1311 13.4345 53.321C14.2999 54.4819 15.1019 55.5372 15.9884 56.7192C16.1995 55.1573 15.6296 53.6165 16.8538 52.3501Z" fill="url(#paint0_linear_173_731)"/>
<path d="M75.2985 35.3802C76.7971 34.0082 78.2113 32.7207 79.6887 31.3699C80.2586 31.982 80.8285 32.5941 81.4406 33.2484C79.6676 34.8736 77.9791 36.4988 76.2061 38.0185C75.594 38.5673 75.383 39.1161 75.383 39.9181C75.4252 43.6751 75.4041 47.4532 75.4041 51.2102C75.4041 53.2576 74.4121 54.2496 72.3436 54.2496C67.4679 54.2496 62.6134 54.2496 57.7377 54.2496C55.7325 54.2496 54.7405 53.2365 54.7405 51.2314C54.7405 46.3346 54.7405 41.4378 54.7405 36.541C54.7405 34.5781 55.7536 33.565 57.7166 33.565C62.5289 33.565 67.3413 33.5861 72.1536 33.5439C73.5678 33.5439 74.6653 33.9449 75.2985 35.3802ZM62.2756 41.6489C63.2043 42.6831 64.133 43.6962 65.0829 44.7516C67.5101 42.5354 69.7897 40.3825 72.1325 38.314C72.8501 37.6808 72.9346 37.0476 72.7446 36.2033C67.6368 36.2033 62.5289 36.2033 57.4 36.2033C57.4 41.3745 57.4 46.4823 57.4 51.5902C62.55 51.5902 67.6579 51.5902 72.7446 51.5902C72.7446 48.1287 72.7446 44.7516 72.7446 41.2056C70.1274 43.6118 67.5946 45.9124 65.1673 48.1287C63.5632 46.5457 62.0224 44.9837 60.4394 43.4218C60.9881 42.9364 61.558 42.3665 62.2756 41.6489Z" fill="url(#paint1_linear_173_731)"/>
<path d="M75.2985 9.56667C76.7971 8.19473 78.2324 6.88611 79.7099 5.53528C80.3008 6.16848 80.8496 6.78058 81.4406 7.41378C80.5119 8.27916 79.5832 9.12343 78.6545 9.98881C77.7469 10.8331 76.8393 11.6774 75.9106 12.4794C75.5307 12.796 75.4041 13.1548 75.4041 13.6403C75.4252 17.545 75.4252 21.4287 75.4041 25.3334C75.4041 27.4441 74.4332 28.415 72.3225 28.415C67.4679 28.415 62.6345 28.415 57.7799 28.415C55.7114 28.415 54.7405 27.4441 54.7405 25.3757C54.7405 20.5 54.7405 15.6243 54.7405 10.7698C54.7405 8.78572 55.7114 7.7937 57.6955 7.7937C62.4445 7.7937 67.1724 7.81481 71.9214 7.7726C73.3989 7.75149 74.6653 7.98367 75.2985 9.56667ZM57.4 25.7978C62.55 25.7978 67.6579 25.7978 72.7657 25.7978C72.7657 22.3574 72.7657 18.9803 72.7657 15.4133C70.1274 17.8194 67.6157 20.1201 65.1884 22.3574C63.5843 20.7533 62.0224 19.1914 60.5238 17.7139C61.0303 17.1651 61.558 16.5741 62.2123 15.8776C63.1832 16.9118 64.133 17.9039 65.104 18.9381C67.5101 16.743 69.7897 14.5901 72.1325 12.5216C72.829 11.9095 72.9346 11.2552 72.7446 10.4109C67.6368 10.4109 62.5289 10.4109 57.3789 10.4109C57.4 15.5188 57.4 20.6055 57.4 25.7978Z" fill="url(#paint2_linear_173_731)"/>
<path d="M75.3829 64.6132C75.3829 65.4363 75.3829 66.2384 75.3829 67.1038C68.5232 67.1038 61.7057 67.1038 54.8249 67.1038C54.8249 66.2806 54.8249 65.4996 54.8249 64.6132C61.6424 64.6132 68.481 64.6132 75.3829 64.6132Z" fill="url(#paint3_linear_173_731)"/>
<path d="M75.3621 61.9747C71.9217 61.9747 68.5657 61.9747 65.1464 61.9747C65.1464 61.1516 65.1464 60.3495 65.1464 59.4841C68.5446 59.4841 71.9428 59.4841 75.3621 59.4841C75.3621 60.3284 75.3621 61.1305 75.3621 61.9747Z" fill="url(#paint4_linear_173_731)"/>
<path d="M54.8249 59.442C57.4422 59.442 59.9328 59.442 62.4656 59.442C62.4656 60.2863 62.4656 61.0883 62.4656 61.9326C59.9328 61.9326 57.4 61.9326 54.8249 61.9326C54.8249 61.1095 54.8249 60.2863 54.8249 59.442Z" fill="url(#paint5_linear_173_731)"/>
<path d="M65.1464 69.7633C65.9696 69.7633 66.7716 69.7633 67.6159 69.7633C67.6159 70.5865 67.6159 71.3885 67.6159 72.2328C66.8138 72.2328 66.0118 72.2328 65.1464 72.2328C65.1464 71.4307 65.1464 70.6287 65.1464 69.7633Z" fill="url(#paint6_linear_173_731)"/>
<path d="M54.804 69.7633C55.6483 69.7633 56.4292 69.7633 57.2735 69.7633C57.2735 70.5865 57.2735 71.3885 57.2735 72.2328C56.4714 72.2328 55.6694 72.2328 54.804 72.2328C54.804 71.4518 54.804 70.6498 54.804 69.7633Z" fill="url(#paint7_linear_173_731)"/>
<path d="M62.4654 69.7843C62.4654 70.6286 62.4654 71.4095 62.4654 72.2327C61.6422 72.2327 60.8402 72.2327 59.9959 72.2327C59.9959 71.4306 59.9959 70.6286 59.9959 69.7843C60.798 69.7843 61.6 69.7843 62.4654 69.7843Z" fill="url(#paint8_linear_173_731)"/>
<path d="M31.9029 38.8207C31.5441 40.1504 31.2908 41.4379 30.8265 42.641C29.8978 45.0472 27.4283 46.588 24.8533 46.4824C22.2571 46.3769 19.9776 44.6884 19.1755 42.2189C18.8167 41.1213 18.5845 40.0026 18.2679 38.7996C22.8059 38.8207 27.2805 38.8207 31.9029 38.8207ZM28.5047 41.3324C27.3016 41.3324 26.183 41.3324 25.0432 41.3324C23.9246 41.3324 22.8059 41.3324 21.6661 41.3324C22.0672 42.8521 23.4391 43.8863 25.0432 43.9074C26.6473 43.9285 28.0615 42.9154 28.5047 41.3324Z" fill="url(#paint9_linear_173_731)"/>
<path d="M21.2018 30.9688C20.2942 30.9688 19.4921 30.9688 18.7112 30.9688C18.2046 29.1748 17.3181 28.3727 15.9462 28.436C14.6165 28.4993 13.7722 29.3225 13.4134 30.9688C12.6324 30.9688 11.8092 30.9688 10.9017 30.9688C10.9017 29.3014 11.556 27.9717 12.8435 26.9796C14.5109 25.6921 16.3683 25.46 18.2468 26.3676C20.1253 27.254 21.0751 28.8159 21.2018 30.9688Z" fill="url(#paint10_linear_173_731)"/>
<path d="M31.4596 30.9689C30.6153 30.9689 29.8344 30.9689 28.969 30.9689C28.9901 29.1326 29.75 27.7396 31.2063 26.7476C32.916 25.5867 34.7523 25.4812 36.5675 26.4732C38.2982 27.423 39.1636 28.9216 39.2691 30.9478C38.4037 30.9478 37.6017 30.9478 36.7996 30.9478C36.1031 29.0271 35.3433 28.3517 33.9713 28.415C32.6627 28.4994 31.8817 29.3015 31.4596 30.9689Z" fill="url(#paint11_linear_173_731)"/>
<defs>
<linearGradient id="paint0_linear_173_731" x1="0.559372" y1="45.5385" x2="49.8596" y2="45.1876" gradientUnits="userSpaceOnUse">
<stop stop-color="#E61386"/>
<stop offset="1" stop-color="#842186"/>
</linearGradient>
<linearGradient id="paint1_linear_173_731" x1="54.7405" y1="44.3938" x2="81.5549" y2="44.0307" gradientUnits="userSpaceOnUse">
<stop stop-color="#E61386"/>
<stop offset="1" stop-color="#842186"/>
</linearGradient>
<linearGradient id="paint2_linear_173_731" x1="54.7405" y1="18.5592" x2="81.5549" y2="18.1961" gradientUnits="userSpaceOnUse">
<stop stop-color="#E61386"/>
<stop offset="1" stop-color="#842186"/>
</linearGradient>
<linearGradient id="paint3_linear_173_731" x1="54.8249" y1="66.0309" x2="75.287" y2="64.0711" gradientUnits="userSpaceOnUse">
<stop stop-color="#E61386"/>
<stop offset="1" stop-color="#842186"/>
</linearGradient>
<linearGradient id="paint4_linear_173_731" x1="65.1464" y1="60.9019" x2="75.3845" y2="60.4146" gradientUnits="userSpaceOnUse">
<stop stop-color="#E61386"/>
<stop offset="1" stop-color="#842186"/>
</linearGradient>
<linearGradient id="paint5_linear_173_731" x1="54.8249" y1="60.8597" x2="62.49" y2="60.5869" gradientUnits="userSpaceOnUse">
<stop stop-color="#E61386"/>
<stop offset="1" stop-color="#842186"/>
</linearGradient>
<linearGradient id="paint6_linear_173_731" x1="65.1464" y1="71.169" x2="67.6266" y2="71.1402" gradientUnits="userSpaceOnUse">
<stop stop-color="#E61386"/>
<stop offset="1" stop-color="#842186"/>
</linearGradient>
<linearGradient id="paint7_linear_173_731" x1="54.804" y1="71.169" x2="57.2842" y2="71.1402" gradientUnits="userSpaceOnUse">
<stop stop-color="#E61386"/>
<stop offset="1" stop-color="#842186"/>
</linearGradient>
<linearGradient id="paint8_linear_173_731" x1="59.9959" y1="71.178" x2="62.4761" y2="71.149" gradientUnits="userSpaceOnUse">
<stop stop-color="#E61386"/>
<stop offset="1" stop-color="#842186"/>
</linearGradient>
<linearGradient id="paint9_linear_173_731" x1="18.2679" y1="43.1758" x2="31.958" y2="42.8941" gradientUnits="userSpaceOnUse">
<stop stop-color="#E61386"/>
<stop offset="1" stop-color="#842186"/>
</linearGradient>
<linearGradient id="paint10_linear_173_731" x1="10.9017" y1="28.7509" x2="21.2422" y2="28.5109" gradientUnits="userSpaceOnUse">
<stop stop-color="#E61386"/>
<stop offset="1" stop-color="#842186"/>
</linearGradient>
<linearGradient id="paint11_linear_173_731" x1="28.969" y1="28.7409" x2="39.3096" y2="28.502" gradientUnits="userSpaceOnUse">
<stop stop-color="#E61386"/>
<stop offset="1" stop-color="#842186"/>
</linearGradient>
</defs>
</svg>
