<svg width="100" height="100" viewBox="0 0 100 100" fill="none" xmlns="http://www.w3.org/2000/svg">
<circle cx="50" cy="50" r="50" fill="url(#paint0_linear_180_145)"/>
<path d="M69.4761 41.5987V40.0207C71.7995 38.8518 73.303 36.6892 73.303 34.3514V31.546C73.303 27.9223 69.8861 25 65.6492 25C61.4123 25 57.9271 27.9223 57.9271 31.546V34.3514C57.9271 36.6308 59.2938 38.7349 61.6173 39.9038V41.5987C60.5923 41.8325 59.6355 42.1832 58.6788 42.6508C57.1754 39.67 53.6902 37.5659 49.6583 37.5659C45.6948 37.5659 42.3462 39.5531 40.7745 42.4754C39.8861 42.1247 38.9977 41.7741 38.1093 41.5987V40.0207C40.4328 38.8518 41.9362 36.6892 41.9362 34.3514V31.546C41.9362 27.9223 38.5194 25 34.2825 25C30.0456 25 26.6287 27.9223 26.6287 31.546V34.3514C26.6287 36.6308 27.9954 38.7349 30.3189 39.9038V41.5987C24.1686 43.1183 20 47.8525 20 53.3464C20 53.814 20.4784 54.2231 21.0251 54.2231H41.2528C41.3212 54.2231 41.3895 54.2231 41.4579 54.2231C42.2779 55.3336 43.4396 56.2687 44.8064 56.9701V59.6002C36.6743 61.4704 31.139 67.7242 31.139 74.9715C31.139 75.4391 31.6173 75.8482 32.164 75.8482H67.3576C67.9043 75.8482 68.3827 75.4391 68.3827 74.9715C68.3827 67.7826 62.574 61.412 54.5102 59.6002V57.087C55.9453 56.3856 57.1071 55.4505 57.9954 54.2816H78.9749C79.5216 54.2816 80 53.8724 80 53.4049C79.9317 47.9109 75.5581 43.0599 69.4761 41.5987ZM22.0501 52.5282C22.4601 47.9694 26.287 44.2288 31.549 43.1768C32.0273 43.0599 32.369 42.7092 32.369 42.3001V39.3778C32.369 39.0271 32.164 38.7349 31.8223 38.618C29.9089 37.7997 28.6788 36.1632 28.6788 34.3514V31.546C28.6788 28.9159 31.2073 26.7534 34.2825 26.7534C37.3576 26.7534 39.8861 28.9159 39.8861 31.546V34.3514C39.8861 36.1632 38.5877 37.8582 36.6743 38.6764C36.3326 38.7933 36.0592 39.144 36.0592 39.4947V42.3001C36.0592 42.7092 36.4009 43.0599 36.8793 43.1768C38.041 43.4106 39.1344 43.7612 40.1595 44.2288C40.0228 44.8133 39.9544 45.3977 39.9544 46.0406V49.7812C39.9544 50.7163 40.1595 51.6515 40.5011 52.5282H22.0501ZM53.0068 55.7427C52.6651 55.8596 52.3918 56.2103 52.3918 56.561V60.3015C52.3918 60.7106 52.7335 61.0613 53.2118 61.1782C60.4556 62.5225 65.7859 67.8995 66.2642 74.1533H33.1891C33.5991 67.8995 38.7927 62.6394 46.0364 61.2367C46.5148 61.1198 46.8565 60.7691 46.8565 60.36V56.5025C46.8565 56.1518 46.6515 55.8596 46.3098 55.7427C43.6446 54.6322 42.0046 52.3528 42.0046 49.8396V46.0991C42.0046 42.417 45.4897 39.4947 49.7266 39.4947C53.9636 39.4947 57.4487 42.4754 57.4487 46.0991V49.7812C57.4487 52.2944 55.7403 54.6322 53.0068 55.7427ZM58.9522 52.5282C59.2938 51.6515 59.4989 50.7163 59.4989 49.7812V46.0406C59.4989 45.5146 59.4305 44.9302 59.2938 44.4626C60.3872 43.8781 61.6173 43.469 62.8474 43.2352C63.3257 43.1183 63.6674 42.7677 63.6674 42.3585V39.4362C63.6674 39.0855 63.4624 38.7933 63.1207 38.6764C61.2073 37.8582 59.9772 36.2217 59.9772 34.4098V31.6044C59.9772 28.9743 62.5057 26.8118 65.5809 26.8118C68.656 26.8118 71.1845 28.9743 71.1845 31.6044V34.4098C71.1845 36.2217 69.8861 37.9166 67.9727 38.7349C67.631 38.8518 67.3576 39.2024 67.3576 39.5531V42.3585C67.3576 42.7677 67.6993 43.1183 68.1777 43.2352C73.4396 44.2288 77.3348 48.0863 77.8132 52.5866L58.9522 52.5282Z" fill="white"/>
<defs>
<linearGradient id="paint0_linear_180_145" x1="4.51957e-07" y1="56.9232" x2="100.433" y2="55.7578" gradientUnits="userSpaceOnUse">
<stop stop-color="#E61386"/>
<stop offset="1" stop-color="#842186"/>
</linearGradient>
</defs>
</svg>
