<svg width="100" height="100" viewBox="0 0 100 100" fill="none" xmlns="http://www.w3.org/2000/svg">
<circle cx="50" cy="50" r="50" fill="url(#paint0_linear_180_47)"/>
<path d="M31.2624 36.2873V26.875H28.4499C27.9346 26.875 27.5124 26.4528 27.5124 25.9375C27.5124 25.4222 27.9346 25 28.4499 25H79.0625C79.5778 25 80 25.4222 80 25.9375C80 26.4528 79.5778 26.875 79.0625 26.875H77.1813V58.75V59.6875H76.2438H59.0211L65.863 74.2901C66.0803 74.7558 65.8754 75.3146 65.4098 75.5319C64.9441 75.7492 64.3853 75.5443 64.168 75.0786L56.9536 59.6875H52.4338L45.2194 75.0786C45.0021 75.5443 44.4433 75.7492 43.9776 75.5319C43.512 75.3146 43.3071 74.7558 43.5244 74.2901L50.3663 59.6875H43.7417V65.3125V66.25H42.8042H20.9375H20V65.3125V57.1109C20 55.0745 20.6829 53.1809 21.8253 51.6536C22.9925 50.089 24.6565 48.9094 26.5687 48.3506L27.0902 48.1954L27.4814 48.5741C28.0588 49.1329 28.7417 49.5861 29.4992 49.8903C30.0455 50.1138 30.6291 50.2566 31.2376 50.3187V49.0397C29.7165 48.8907 28.3506 48.214 27.3324 47.1958C26.1776 46.041 25.4574 44.4392 25.4574 42.6697C25.4574 40.9065 26.1776 39.3046 27.3324 38.1436L27.3386 38.1374C28.3568 37.1192 29.7227 36.4425 31.2376 36.2935L31.2624 36.2873ZM57.5062 35.3063C56.9909 35.3063 56.5687 34.8841 56.5687 34.3688C56.5687 33.8535 56.9909 33.4313 57.5062 33.4313H64.0687C64.1184 33.4313 64.168 33.4375 64.2115 33.4437C64.2674 33.4499 64.3171 33.4623 64.3667 33.481L64.4723 33.5244H64.4785L64.4971 33.5306H64.5033L64.5219 33.543L64.5406 33.5555L64.5592 33.5679L64.5778 33.5803L64.5964 33.5927L64.6337 33.6175L64.6523 33.63L64.6709 33.6424L64.6896 33.6548L64.702 33.6672V33.6734L64.7144 33.6858L64.7206 33.6921L64.7703 33.7417L64.7765 33.7479L64.7827 33.7541L64.7889 33.7603L64.7951 33.7728L64.851 33.8473L64.8572 33.8535L64.8696 33.8721L64.8882 33.9094L64.9069 33.9466L64.9131 33.9652L64.9193 33.9839L64.9255 34.0025L64.9379 34.0459L64.9565 34.108C64.9752 34.1825 64.9876 34.2632 64.9876 34.344V34.3688V39.969C64.9876 40.4843 64.5654 40.9065 64.0501 40.9065C63.5348 40.9065 63.1126 40.4843 63.1126 39.969V36.43L56.9785 41.8812L60.0269 44.9296L60.0207 44.9358L60.0579 44.9731C60.3994 45.358 60.3684 45.9478 59.9834 46.2893L51.0803 54.255C50.6954 54.5964 50.1055 54.5654 49.7641 54.1805C49.4226 53.7955 49.4536 53.2057 49.8386 52.8642L58.0029 45.5567L54.9483 42.5021C54.582 42.1358 54.582 41.5397 54.9483 41.1734L55.029 41.1051L61.5853 35.2815H57.4876L57.5062 35.3063ZM55.0103 41.1672L55.0476 41.13L55.0103 41.1672ZM33.1374 26.8688V36.3742C34.404 36.6225 35.5401 37.2496 36.4156 38.125C37.5704 39.2798 38.2906 40.8878 38.2906 42.6573C38.2906 44.4205 37.5704 46.0223 36.4156 47.1834L36.4094 47.1896C35.5277 48.065 34.3978 48.6921 33.1374 48.9404V50.2194C33.5224 50.1449 33.8949 50.0331 34.2488 49.8841C35.0062 49.5737 35.6954 49.1267 36.2666 48.5679L36.6577 48.1892L37.1792 48.3444C39.0915 48.9094 40.7554 50.089 41.9226 51.6473C43.065 53.1747 43.7479 55.0683 43.7479 57.1047V57.8063H75.3001V26.8688H33.125H33.1374ZM35.0869 39.4536C34.2674 38.6341 33.1374 38.125 31.8833 38.125C30.6291 38.125 29.4992 38.6341 28.6796 39.4474C27.8601 40.267 27.3572 41.4031 27.3572 42.6511C27.3572 43.899 27.8663 45.0352 28.6858 45.8547C29.5054 46.6743 30.6353 47.1834 31.8895 47.1834C33.1436 47.1834 34.2736 46.6743 35.0931 45.8609L35.0993 45.8547C35.9127 45.0414 36.4218 43.9052 36.4218 42.6511C36.4218 41.4031 35.9127 40.267 35.0931 39.4474L35.0869 39.4536ZM37.2041 64.3688L37.1854 60.625C37.1854 60.1097 37.6014 59.6875 38.1167 59.6875C38.632 59.6875 39.0542 60.1035 39.0542 60.6188L39.0728 64.3688H41.8791V57.1047C41.8791 55.4781 41.339 53.9756 40.4325 52.7649C39.6006 51.6536 38.4582 50.7906 37.142 50.2939C36.4901 50.8464 35.7512 51.2935 34.9503 51.6163C34.0004 52.0012 32.9636 52.2123 31.8833 52.2123C30.803 52.2123 29.7661 52.0012 28.8162 51.6163C28.0153 51.2935 27.2765 50.8402 26.6246 50.2939C25.3084 50.7844 24.1598 51.6536 23.334 52.7649C22.4276 53.9756 21.8874 55.4781 21.8874 57.1047V64.3688H24.7123L24.6937 60.625C24.6937 60.1097 25.1097 59.6875 25.625 59.6875C26.1403 59.6875 26.5625 60.1035 26.5625 60.6188L26.5811 64.3688H37.2103H37.2041Z" fill="white"/>
<defs>
<linearGradient id="paint0_linear_180_47" x1="4.51957e-07" y1="56.9232" x2="100.433" y2="55.7578" gradientUnits="userSpaceOnUse">
<stop stop-color="#E61386"/>
<stop offset="1" stop-color="#842186"/>
</linearGradient>
</defs>
</svg>
