<svg width="100" height="100" viewBox="0 0 100 100" fill="none" xmlns="http://www.w3.org/2000/svg">
<circle cx="50" cy="50" r="50" fill="url(#paint0_linear_180_166)"/>
<path d="M33.1743 43.7676H20.1954C19.5367 43.7676 19 44.3417 19 45.0462C19 45.7507 19.5367 46.3248 20.1954 46.3248H33.1743C33.833 46.3248 34.3697 45.7507 34.3697 45.0462C34.3697 44.3417 33.833 43.7676 33.1743 43.7676Z" fill="white"/>
<path d="M33.1745 51.304H27.1974C26.5387 51.304 26.002 51.8779 26.002 52.5823C26.002 53.2868 26.5387 53.8607 27.1974 53.8607H33.1745C33.8332 53.8607 34.3699 53.2868 34.3699 52.5823C34.3699 51.8779 33.8332 51.304 33.1745 51.304Z" fill="white"/>
<path d="M33.1742 58.8411H23.3181C22.6594 58.8411 22.1227 59.4148 22.1227 60.119C22.1227 60.8231 22.6594 61.3969 23.3181 61.3969H33.1742C33.8329 61.3969 34.3696 60.8231 34.3696 60.119C34.3696 59.4148 33.8329 58.8411 33.1742 58.8411Z" fill="white"/>
<path d="M77.039 43.1417C76.0632 40.925 74.7702 38.917 73.1844 37.1697C72.4281 36.3091 71.5742 35.5267 70.696 34.8226L72.2574 32.6059C72.6477 32.0322 72.5501 31.2238 72.0134 30.8065C71.4767 30.3893 70.7204 30.4936 70.33 31.0673L68.6711 33.4144C67.5732 32.7103 66.4022 32.1365 65.2068 31.6671C64.1577 31.2759 63.0843 30.963 61.9865 30.7283C61.279 30.5979 60.5471 30.4936 59.8396 30.4414V26.5557H62.2548C62.9135 26.5557 63.4502 25.982 63.4502 25.2779C63.4502 24.5737 62.9135 24 62.2548 24H55.0091C54.3504 24 53.8137 24.5737 53.8137 25.2779C53.8137 25.982 54.3504 26.5557 55.0091 26.5557H57.4243V30.3371C54.6431 30.4414 51.8863 31.1455 49.3491 32.3973C47.2754 33.4405 45.3969 34.7965 43.7379 36.4917C41.4203 38.8387 39.6393 41.7856 38.5415 44.9933C38.1512 46.1147 37.8584 47.3143 37.6388 48.5139C37.4193 49.7135 37.3217 50.9131 37.2729 52.1127C37.1997 55.5551 37.8828 58.9975 39.2734 62.1269C40.2493 64.3175 41.5179 66.2995 43.1036 68.0468C45.3237 70.5242 48.0805 72.428 51.0813 73.5754C52.1303 73.9666 53.2038 74.2796 54.3016 74.5143C55.3994 74.7229 56.4973 74.8533 57.6195 74.8794C57.7903 74.8794 57.9854 74.8794 58.1562 74.8794C61.1814 74.8794 64.2065 74.1752 66.9389 72.7931C68.9882 71.776 70.8668 70.4199 72.5013 68.7509C74.8434 66.3777 76.6487 63.4309 77.7465 60.1971C78.1369 59.0757 78.4296 57.8761 78.6248 56.7026C78.8444 55.503 78.9664 54.2773 78.9908 53.0776C79.0883 49.6613 78.4052 46.219 77.039 43.1417ZM76.2828 56.2071C76.0876 57.2763 75.8436 58.2934 75.5021 59.3104C74.5262 62.153 72.9405 64.7869 70.8668 66.8732C69.4274 68.3336 67.7684 69.5593 65.9387 70.446C63.3771 71.7238 60.4983 72.3758 57.7171 72.2715C56.7412 72.2454 55.7654 72.1411 54.7895 71.9325C53.8137 71.7499 52.8622 71.4631 51.9351 71.124C49.2759 70.107 46.8363 68.4119 44.8846 66.2213C43.494 64.6826 42.3473 62.9093 41.4935 60.9795C40.2737 58.2412 39.6637 55.1639 39.7369 52.1388C39.7613 51.0696 39.8589 50.0004 40.0541 48.9572C40.2493 47.888 40.5176 46.8449 40.8348 45.8539C41.7862 43.0113 43.372 40.4295 45.4213 38.3432C46.8851 36.8568 48.544 35.6311 50.3982 34.7183C52.8134 33.5187 55.497 32.8928 58.1562 32.8928C58.3026 32.8928 58.4734 32.8928 58.6198 32.8928C59.5956 32.9189 60.5715 33.0232 61.5473 33.2318C62.5232 33.4144 63.4746 33.7012 64.4017 34.0663C67.0609 35.0834 69.5006 36.7524 71.4523 38.943C72.8429 40.5078 73.9895 42.2811 74.8678 44.237C76.0632 46.9753 76.6731 50.0004 76.5999 53.0255C76.5755 54.0686 76.4779 55.1639 76.2828 56.2071Z" fill="white"/>
<path d="M65.6214 43.6632L60.4738 48.6443C60.2054 48.4618 59.9371 48.3314 59.6443 48.201C59.4247 48.1228 59.2052 48.0445 58.9856 48.0185C58.7416 47.9663 58.5221 47.9402 58.3025 47.9402C57.6438 47.9141 56.9607 48.0706 56.3508 48.3836C55.9116 48.5922 55.5213 48.8791 55.1798 49.2442C54.6918 49.7397 54.3259 50.3395 54.1063 51.0175C54.0331 51.2523 53.9599 51.487 53.9111 51.7478C53.8623 52.0085 53.838 52.2433 53.838 52.5041C53.8136 53.2343 53.9599 53.9384 54.2527 54.5904C54.4479 55.0598 54.7162 55.451 55.0578 55.8161C55.5213 56.3377 56.1068 56.7289 56.7167 56.9636C56.9363 57.0418 57.1559 57.1201 57.3754 57.1461C57.595 57.1983 57.839 57.2244 58.0585 57.2244C58.1073 57.2244 58.1317 57.2244 58.1805 57.2244C58.8148 57.2244 59.4491 57.0679 60.0103 56.781C60.425 56.5724 60.8397 56.2855 61.1813 55.9465C61.6692 55.451 62.0352 54.8251 62.2791 54.1731C62.3523 53.9384 62.4255 53.7037 62.4743 53.4429C62.5231 53.1821 62.5475 52.9474 62.5475 52.6866C62.5719 51.9825 62.4255 51.2523 62.1327 50.6003C62.1327 50.5742 62.1083 50.5742 62.1083 50.5481L67.2804 45.567C67.7683 45.0976 67.8171 44.2631 67.378 43.7415C66.8901 43.246 66.1338 43.1938 65.6214 43.6632ZM60.0834 52.9735C60.059 53.0778 60.0347 53.2082 60.0103 53.3125C59.9127 53.5994 59.7419 53.8862 59.5223 54.0949C59.3759 54.2514 59.2052 54.3817 59.01 54.46C58.7416 54.5904 58.4489 54.6425 58.1561 54.6425C58.0585 54.6425 57.9366 54.6165 57.839 54.6165C57.7414 54.5904 57.6438 54.5643 57.5462 54.5382C57.2778 54.4339 57.0095 54.2514 56.8143 54.0166C56.6679 53.8602 56.546 53.6776 56.4484 53.469C56.3264 53.1821 56.2532 52.8692 56.2532 52.5562C56.2532 52.4519 56.2776 52.3215 56.2776 52.2172C56.302 52.1129 56.3264 51.9825 56.3508 51.8782C56.4484 51.5913 56.6191 51.3044 56.8387 51.0958C56.9851 50.9393 57.1559 50.8089 57.351 50.7046C57.6194 50.5742 57.8878 50.522 58.1561 50.522C58.1805 50.522 58.1805 50.522 58.2049 50.522C58.3025 50.522 58.4001 50.5481 58.5221 50.5481C58.6197 50.5742 58.7172 50.6003 58.8148 50.6264C59.1076 50.7307 59.3515 50.9132 59.5467 51.1479C59.6931 51.3044 59.8151 51.513 59.9127 51.6956C60.0346 51.9825 60.1078 52.2954 60.0834 52.6084C60.1078 52.7388 60.0834 52.8692 60.0834 52.9735Z" fill="white"/>
<defs>
<linearGradient id="paint0_linear_180_166" x1="4.51957e-07" y1="56.9232" x2="100.433" y2="55.7578" gradientUnits="userSpaceOnUse">
<stop stop-color="#1BAAE6"/>
<stop offset="1" stop-color="#0761A3"/>
</linearGradient>
</defs>
</svg>
