<svg width="100" height="100" viewBox="0 0 100 100" fill="none" xmlns="http://www.w3.org/2000/svg">
<circle cx="50" cy="50" r="50" fill="url(#paint0_linear_180_33)"/>
<path d="M78.8485 48.8449C78.697 48.8449 78.5469 48.8747 78.4069 48.9327C78.2669 48.9906 78.1397 49.0756 78.0325 49.1828C77.9254 49.2899 77.8404 49.4172 77.7824 49.5572C77.7244 49.6972 77.6946 49.8473 77.6946 49.9988C77.6949 56.2797 75.5603 62.3741 71.6409 67.2821C67.7215 72.1901 62.2502 75.62 56.1249 77.0091C49.9995 78.3981 43.5839 77.6639 37.9308 74.9267C32.2777 72.1896 27.7229 67.6121 25.0138 61.9455C22.3047 56.2789 21.6022 49.8598 23.0216 43.7414C24.4411 37.623 27.8981 32.1688 32.8254 28.2738C37.7527 24.3788 43.8577 22.2743 50.1385 22.3057C56.4193 22.3371 62.5029 24.5026 67.391 28.4467H62.525C62.219 28.4467 61.9255 28.5683 61.7091 28.7847C61.4927 29.0011 61.3711 29.2946 61.3711 29.6006C61.3711 29.9066 61.4927 30.2001 61.7091 30.4165C61.9255 30.6329 62.219 30.7545 62.525 30.7545H70.3994C70.7051 30.7533 70.9979 30.6314 71.2141 30.4152C71.4302 30.1991 71.5521 29.9063 71.5533 29.6006V21.7262C71.5533 21.4202 71.4318 21.1267 71.2154 20.9103C70.999 20.6939 70.7055 20.5723 70.3994 20.5723C70.0934 20.5723 69.7999 20.6939 69.5835 20.9103C69.3671 21.1267 69.2455 21.4202 69.2455 21.7262V26.9874C63.3193 22.031 55.7094 19.552 48.0009 20.0667C40.2924 20.5814 33.0796 24.0501 27.8649 29.7503C22.6502 35.4506 19.8356 42.9429 20.0074 50.6666C20.1792 58.3904 23.3242 65.7501 28.7872 71.2128C32.9829 75.4086 38.3286 78.2659 44.1483 79.4235C49.9679 80.5811 56.0002 79.987 61.4822 77.7163C66.9642 75.4456 71.6497 71.6002 74.9463 66.6666C78.2429 61.7329 80.0024 55.9325 80.0024 49.9988C80.0025 49.8473 79.9727 49.6972 79.9147 49.5572C79.8567 49.4172 79.7717 49.2899 79.6646 49.1828C79.5574 49.0756 79.4302 48.9906 79.2902 48.9327C79.1501 48.8747 79.0001 48.8449 78.8485 48.8449V48.8449Z" fill="white"/>
<path d="M56.3751 41.7179L50.4952 57.8724C50.443 58.0148 50.4193 58.1662 50.4257 58.3178C50.432 58.4694 50.4682 58.6183 50.5322 58.7558C50.5962 58.8934 50.6866 59.0171 50.7985 59.1196C50.9103 59.2222 51.0412 59.3017 51.1838 59.3536C51.3264 59.4055 51.4778 59.4287 51.6294 59.422C51.781 59.4152 51.9298 59.3786 52.0672 59.3143C52.2046 59.25 52.328 59.1592 52.4303 59.0471C52.5326 58.9351 52.6117 58.8039 52.6633 58.6612L58.5432 42.5067C58.6478 42.2192 58.6339 41.9019 58.5045 41.6246C58.3752 41.3474 58.141 41.1329 57.8535 41.0283C57.566 40.9237 57.2487 40.9375 56.9715 41.0669C56.6942 41.1962 56.4797 41.4304 56.3751 41.7179V41.7179Z" fill="white"/>
<path d="M40.2629 47.9117C40.2644 47.3519 40.1549 46.7973 39.9407 46.2801C39.7265 45.7629 39.4118 45.2933 39.0149 44.8985C37.4047 43.2871 34.5988 43.2871 32.9886 44.8985C32.5915 45.2932 32.2767 45.7628 32.0624 46.28C31.8481 46.7972 31.7385 47.3518 31.74 47.9117C31.74 48.2177 31.8616 48.5112 32.078 48.7276C32.2944 48.944 32.5879 49.0656 32.8939 49.0656C33.1999 49.0656 33.4934 48.944 33.7098 48.7276C33.9262 48.5112 34.0478 48.2177 34.0478 47.9117C34.0472 47.655 34.0975 47.4007 34.1957 47.1636C34.294 46.9265 34.4383 46.7112 34.6202 46.5302C34.9922 46.1743 35.487 45.9757 36.0018 45.9757C36.5165 45.9757 37.0113 46.1743 37.3833 46.5302C37.7494 46.8964 37.9551 47.3932 37.9551 47.9111C37.9551 48.429 37.7494 48.9258 37.3833 49.2921L32.0781 54.5973C31.9167 54.7586 31.8068 54.9642 31.7622 55.188C31.7177 55.4119 31.7405 55.6439 31.8279 55.8547C31.9152 56.0656 32.0631 56.2458 32.2528 56.3726C32.4426 56.4993 32.6657 56.567 32.8939 56.567H39.1091C39.4151 56.567 39.7086 56.4454 39.925 56.229C40.1414 56.0126 40.2629 55.7191 40.2629 55.4131C40.2629 55.1071 40.1414 54.8136 39.925 54.5972C39.7086 54.3808 39.4151 54.2592 39.1091 54.2592H35.6795L39.0149 50.9237C39.4118 50.5292 39.7265 50.0598 39.9407 49.5427C40.1549 49.0257 40.2644 48.4713 40.2629 47.9117V47.9117Z" fill="white"/>
<path d="M46.8407 56.5674C46.9922 56.5674 47.1423 56.5376 47.2823 56.4796C47.4223 56.4217 47.5495 56.3367 47.6567 56.2295C47.7639 56.1224 47.8488 55.9951 47.9068 55.8551C47.9648 55.7151 47.9946 55.565 47.9946 55.4135V53.6928H48.5901C48.8962 53.6928 49.1897 53.5712 49.4061 53.3548C49.6225 53.1384 49.744 52.8449 49.744 52.5389C49.744 52.2328 49.6225 51.9393 49.4061 51.7229C49.1897 51.5065 48.8962 51.385 48.5901 51.385H47.9946V44.8042C47.9945 44.5558 47.9143 44.3141 47.7659 44.115C47.6174 43.9158 47.4088 43.7698 47.1708 43.6987C46.9328 43.6276 46.6783 43.6351 46.4449 43.7202C46.2116 43.8053 46.0119 43.9633 45.8755 44.1709L40.8036 51.9056C40.6894 52.0797 40.6244 52.2814 40.6156 52.4894C40.6067 52.6973 40.6542 52.9039 40.7531 53.087C40.852 53.2702 40.9987 53.4232 41.1775 53.5299C41.3563 53.6365 41.5606 53.6928 41.7687 53.6928H45.6868V55.4135C45.6868 55.565 45.7166 55.7151 45.7745 55.8551C45.8325 55.9951 45.9175 56.1224 46.0247 56.2295C46.1318 56.3367 46.259 56.4217 46.3991 56.4796C46.5391 56.5376 46.6891 56.5674 46.8407 56.5674V56.5674ZM43.9053 51.385L45.6868 48.6681V51.385H43.9053Z" fill="white"/>
<path d="M62.5431 55.4132C62.5431 55.7192 62.6647 56.0127 62.8811 56.2291C63.0975 56.4455 63.391 56.5671 63.697 56.5671C64.003 56.5671 64.2965 56.4455 64.5129 56.2291C64.7293 56.0127 64.8509 55.7192 64.8509 55.4132V53.0377C64.8473 51.6595 65.117 50.2942 65.6445 49.0209C66.1719 47.7476 66.9466 46.5916 67.9238 45.6196C68.0852 45.4583 68.1951 45.2527 68.2396 45.0289C68.2842 44.805 68.2613 44.573 68.174 44.3622C68.0867 44.1513 67.9388 43.9711 67.749 43.8443C67.5593 43.7176 67.3362 43.6499 67.108 43.6499H60.2866C59.9806 43.6499 59.6871 43.7715 59.4707 43.9879C59.2543 44.2043 59.1327 44.4978 59.1327 44.8038C59.1327 45.1098 59.2543 45.4033 59.4707 45.6197C59.6871 45.8361 59.9806 45.9577 60.2866 45.9577H64.6751C63.2784 48.0542 62.5363 50.5186 62.5431 53.0377V55.4132Z" fill="white"/>
<defs>
<linearGradient id="paint0_linear_180_33" x1="4.51957e-07" y1="56.9232" x2="100.433" y2="55.7578" gradientUnits="userSpaceOnUse">
<stop stop-color="#E61386"/>
<stop offset="1" stop-color="#842186"/>
</linearGradient>
</defs>
</svg>
