<svg width="100" height="100" viewBox="0 0 100 100" fill="none" xmlns="http://www.w3.org/2000/svg">
<circle cx="50" cy="50" r="50" fill="url(#paint0_linear_180_152)"/>
<path d="M34.9987 80C34.8355 80 34.6703 79.9621 34.5155 79.8816C33.9992 79.6142 33.7977 78.979 34.0655 78.4632L64.0653 20.5689C64.3321 20.0526 64.9684 19.8505 65.4837 20.1184C66 20.3858 66.2016 21.021 65.9337 21.5373L35.934 79.4316C35.7471 79.7926 35.3797 80 34.9987 80Z" fill="white"/>
<path d="M37.6315 45.2642C30.6668 45.2642 25 39.5974 25 32.6327C25 25.668 30.6668 20.0012 37.6315 20.0012C44.5961 20.0012 50.2629 25.668 50.2629 32.6327C50.2629 39.5974 44.5961 45.2642 37.6315 45.2642ZM37.6315 22.1065C31.8273 22.1065 27.1052 26.8285 27.1052 32.6327C27.1052 38.4368 31.8273 43.1589 37.6315 43.1589C43.4356 43.1589 48.1577 38.4368 48.1577 32.6327C48.1577 26.8285 43.4356 22.1065 37.6315 22.1065Z" fill="white"/>
<path d="M62.8944 80C55.9297 80 50.2629 74.3332 50.2629 67.3685C50.2629 60.4039 55.9297 54.7371 62.8944 54.7371C69.8591 54.7371 75.5259 60.4039 75.5259 67.3685C75.5259 74.3332 69.8591 80 62.8944 80ZM62.8944 56.8423C57.0902 56.8423 52.3682 61.5644 52.3682 67.3685C52.3682 73.1727 57.0902 77.8948 62.8944 77.8948C68.6986 77.8948 73.4206 73.1727 73.4206 67.3685C73.4206 61.5644 68.6986 56.8423 62.8944 56.8423Z" fill="white"/>
<defs>
<linearGradient id="paint0_linear_180_152" x1="4.51957e-07" y1="56.9232" x2="100.433" y2="55.7578" gradientUnits="userSpaceOnUse">
<stop stop-color="#1BAAE6"/>
<stop offset="1" stop-color="#0761A3"/>
</linearGradient>
</defs>
</svg>
