<svg width="100" height="100" viewBox="0 0 100 100" fill="none" xmlns="http://www.w3.org/2000/svg">
<circle cx="50" cy="50" r="50" fill="url(#paint0_linear_180_131)"/>
<path d="M66.6452 70.3483L55.445 67.4294V60.8708C56.8648 60.2312 58.1351 59.3017 59.1744 58.142C60.7071 56.4456 61.7039 54.3769 62.3428 52.2923H66.0393C66.7384 52.2923 67.409 52.0151 67.904 51.5213C68.3989 51.0276 68.6779 50.3577 68.6796 49.6586V43.9819C68.6776 43.2864 68.4012 42.6198 67.9105 42.127C67.4199 41.6341 66.7545 41.3547 66.0591 41.3495C66.0023 39.7468 65.6406 35.5935 63.5231 31.7453C64.7323 32.1437 66.0368 32.1488 67.2491 31.7597C68.4614 31.3706 69.5193 30.6074 70.2708 29.5796C71.0224 28.5518 71.4289 27.3123 71.4322 26.0391C71.4354 24.7659 71.0351 23.5244 70.2887 22.4928C69.5424 21.4613 68.4884 20.6927 67.278 20.2975C66.0677 19.9023 64.7632 19.9008 63.5519 20.2932C62.3407 20.6855 61.2849 21.4516 60.5361 22.4814C59.7873 23.5112 59.3841 24.7517 59.3843 26.025C59.385 26.3514 59.4119 26.6772 59.4649 26.9993C56.8866 25.0731 53.6442 24.0949 49.7973 24.0883H49.7445C45.0592 24.0975 41.2716 25.5405 38.4861 28.3907C34.148 32.8225 33.5566 39.2583 33.4827 41.3495C32.7872 41.3547 32.1219 41.6341 31.6312 42.127C31.1406 42.6198 30.8642 43.2864 30.8621 43.9819V49.6586C30.8638 50.3548 31.1404 51.0221 31.6317 51.5153C32.123 52.0085 32.7892 52.2878 33.4853 52.2923H37.1382C37.789 54.3756 38.795 56.4443 40.333 58.1407C41.3587 59.2793 42.6062 60.1962 43.9991 60.8351V67.4294L32.7988 70.3483C31.4247 70.7073 30.2084 71.5117 29.3401 72.6356C28.4719 73.7595 28.0006 75.1394 28 76.5596V79.3399C28 79.515 28.0695 79.6829 28.1933 79.8067C28.3171 79.9305 28.485 80 28.6601 80C28.8351 80 29.003 79.9305 29.1268 79.8067C29.2506 79.6829 29.3202 79.515 29.3202 79.3399V76.5596C29.3202 75.4314 29.6945 74.3349 30.3845 73.4422C31.0744 72.5494 32.041 71.9107 33.1328 71.6262L44.4598 68.673L49.2124 73.4441C49.2739 73.5053 49.3467 73.5539 49.4269 73.5869C49.5071 73.62 49.593 73.6369 49.6798 73.6368H49.7616C49.8484 73.6369 49.9343 73.62 50.0145 73.5869C50.0947 73.5539 50.1676 73.5053 50.229 73.4441L54.9816 68.673L66.3086 71.6262C67.4004 71.9107 68.367 72.5494 69.057 73.4422C69.7469 74.3349 70.1212 75.4314 70.1212 76.5596V79.3399C70.1212 79.515 70.1908 79.6829 70.3146 79.8067C70.4384 79.9305 70.6063 80 70.7813 80C70.9564 80 71.1243 79.9305 71.2481 79.8067C71.3719 79.6829 71.4414 79.515 71.4414 79.3399V76.5596C71.4412 75.1397 70.9704 73.7599 70.1026 72.636C69.2348 71.5122 68.0189 70.7076 66.6452 70.3483ZM49.0237 44.4004C48.8638 43.3145 48.3192 42.3221 47.489 41.6042C46.6589 40.8862 45.5984 40.4903 44.5008 40.4887H41.6915C45.1358 38.8253 49.7801 36.3632 53.1954 33.7229C54.1195 35.043 56.4958 38.284 58.9658 40.4914H58.884H55.0713C53.9736 40.4929 52.9129 40.8887 52.0825 41.6067C51.2521 42.3247 50.7073 43.317 50.5471 44.403L49.0237 44.4004ZM38.259 42.8967C38.5642 42.5546 38.9383 42.2808 39.3567 42.0934C39.7751 41.9059 40.2283 41.809 40.6868 41.8089H44.5008C45.3631 41.8089 46.1902 42.1515 46.8 42.7613C47.4098 43.371 47.7523 44.1981 47.7523 45.0605C47.7523 45.9228 47.4098 46.7499 46.8 47.3597C46.1902 47.9695 45.3631 48.312 44.5008 48.312H40.6868C40.06 48.3117 39.4467 48.1302 38.9206 47.7894C38.3945 47.4487 37.9782 46.9631 37.7217 46.3912C37.4652 45.8193 37.3794 45.1854 37.4747 44.5659C37.5701 43.9464 37.8424 43.3677 38.259 42.8993V42.8967ZM55.0713 41.8089H58.884C59.7025 41.8084 60.4911 42.117 61.092 42.6728C61.6929 43.2287 62.0618 43.9909 62.125 44.807C62.125 45.0314 62.1131 45.2651 62.1026 45.5093C61.9948 46.2863 61.6096 46.9981 61.018 47.5133C60.4264 48.0284 59.6684 48.3121 58.884 48.312H55.0713C54.209 48.312 53.3819 47.9695 52.7721 47.3597C52.1623 46.7499 51.8198 45.9228 51.8198 45.0605C51.8198 44.1981 52.1623 43.371 52.7721 42.7613C53.3819 42.1515 54.209 41.8089 55.0713 41.8089V41.8089ZM67.3489 43.9872V49.6639C67.3472 50.0129 67.2073 50.347 66.9599 50.5931C66.7125 50.8393 66.3777 50.9775 66.0287 50.9775H62.7085C63.1367 49.1492 63.3826 47.2831 63.4425 45.4063C63.4531 45.2743 63.457 45.1423 63.4544 45.0103C63.4782 44.0268 63.4544 43.2201 63.4214 42.6815H66.0393C66.3858 42.6832 66.7177 42.8211 66.9634 43.0654C67.2092 43.3096 67.3491 43.6407 67.3529 43.9872H67.3489ZM65.403 21.3265C66.3332 21.3268 67.2425 21.6029 68.0159 22.1199C68.7892 22.6369 69.3919 23.3716 69.7477 24.2311C70.1035 25.0906 70.1965 26.0364 70.0149 26.9487C69.8332 27.8611 69.3851 28.6991 68.7272 29.3568C68.0694 30.0145 67.2312 30.4623 66.3188 30.6437C65.4064 30.8251 64.4607 30.7319 63.6013 30.3758C62.7419 30.0198 62.0073 29.4169 61.4905 28.6434C60.9737 27.8699 60.6979 26.9605 60.6979 26.0303C60.6993 24.7829 61.1955 23.5871 62.0776 22.7053C62.9597 21.8234 64.1557 21.3275 65.403 21.3265V21.3265ZM39.426 29.3122C41.9581 26.7286 45.4354 25.4177 49.7616 25.4124C54.0878 25.4071 57.5638 26.7326 60.0972 29.3135C64.0392 33.3361 64.636 39.3824 64.7178 41.3548H62.793C59.9758 40.7277 55.4212 34.6892 53.8951 32.4001C53.844 32.3235 53.7774 32.2584 53.6996 32.2091C53.6219 32.1597 53.5347 32.1272 53.4436 32.1136C53.3527 32.0998 53.26 32.1051 53.1714 32.1292C53.0827 32.1533 53.0001 32.1956 52.9287 32.2535C47.4857 36.6761 37.7864 40.8518 36.6035 41.3534H34.8055C34.89 39.3824 35.4853 33.3361 39.426 29.3122ZM33.4853 50.9722C33.1377 50.9701 32.8049 50.831 32.5592 50.5851C32.3135 50.3391 32.1748 50.0062 32.173 49.6586V43.9819C32.1751 43.6345 32.314 43.3019 32.5597 43.0563C32.8053 42.8106 33.1379 42.6717 33.4853 42.6696H36.0213C35.9474 44.1073 35.9052 47.45 36.7699 50.9669L33.4853 50.9722ZM41.3165 57.2641C39.8393 55.6363 38.898 53.5914 38.3026 51.5332C38.2939 51.4789 38.2788 51.4257 38.2577 51.3748C37.9937 50.4238 37.7887 49.4573 37.6438 48.481C38.4812 49.228 39.5646 49.6402 40.6868 49.6388H44.5008C45.5984 49.6375 46.6591 49.2417 47.4893 48.5237C48.3196 47.8057 48.8641 46.8132 49.0237 45.7271H50.5471C50.707 46.8133 51.2518 47.8058 52.0823 48.5238C52.9127 49.2418 53.9735 49.6375 55.0713 49.6388H58.884C59.9537 49.6412 60.9902 49.2674 61.8121 48.5827C61.6693 49.5381 61.4678 50.4838 61.2088 51.4144C59.2998 55.1888 53.4 54.9908 53.3432 54.9881C53.1682 54.9806 52.9973 55.0429 52.8682 55.1614C52.7391 55.2798 52.6623 55.4448 52.6548 55.6198C52.6473 55.7949 52.7096 55.9658 52.828 56.0949C52.9465 56.224 53.1114 56.3008 53.2865 56.3083C53.3168 56.3083 53.4185 56.3083 53.5888 56.3083C54.5552 56.3083 57.5744 56.1763 59.9692 54.637C59.4942 55.5866 58.8968 56.4698 58.1922 57.2641C57.2239 58.3401 56.031 59.1901 54.6977 59.7539C54.5862 59.7678 54.4801 59.8106 54.3901 59.878C52.9133 60.4308 51.3463 60.7035 49.7696 60.682C46.2196 60.678 43.3773 59.5268 41.3165 57.2641ZM49.7233 72.083L45.3219 67.6657V61.3474C48.1921 62.2065 51.2498 62.2152 54.1248 61.3724V67.6657L49.7233 72.083Z" fill="white"/>
<defs>
<linearGradient id="paint0_linear_180_131" x1="4.51957e-07" y1="56.9232" x2="100.433" y2="55.7578" gradientUnits="userSpaceOnUse">
<stop stop-color="#E61386"/>
<stop offset="1" stop-color="#842186"/>
</linearGradient>
</defs>
</svg>
