<svg width="100" height="100" viewBox="0 0 100 100" fill="none" xmlns="http://www.w3.org/2000/svg">
<circle cx="50" cy="50" r="50" fill="url(#paint0_linear_180_159)"/>
<path d="M28.4704 43.1237C28.5747 43.1235 28.6779 43.1027 28.7741 43.0626C28.8703 43.0225 28.9577 42.9638 29.0312 42.8899C29.1047 42.816 29.1629 42.7283 29.2025 42.6318C29.2421 42.5354 29.2622 42.4321 29.2618 42.3278L29.2515 39.6073C29.2488 38.9645 29.3728 38.3274 29.6163 37.7326C29.8599 37.1377 30.2183 36.5967 30.6711 36.1404C31.1238 35.6841 31.662 35.3214 32.255 35.0732C32.8479 34.825 33.484 34.696 34.1267 34.6937H34.1444C35.4376 34.6964 36.6772 35.2103 37.5929 36.1233C38.5087 37.0363 39.0263 38.2744 39.0329 39.5675L39.0432 42.2866C39.0456 42.4967 39.1311 42.6974 39.2811 42.8446C39.4311 42.9919 39.6333 43.0737 39.8435 43.0721C39.9477 43.0719 40.0509 43.0512 40.1471 43.011C40.2434 42.9709 40.3307 42.9122 40.4042 42.8383C40.4777 42.7644 40.536 42.6767 40.5755 42.5803C40.6151 42.4838 40.6353 42.3805 40.6349 42.2763L40.6246 39.5557C40.6181 38.3162 40.2565 37.1045 39.5826 36.0641C38.9087 35.0238 37.9508 34.1984 36.8223 33.6857C37.5189 33.1251 38.0243 32.3621 38.2686 31.5019C38.5129 30.6417 38.4841 29.7269 38.1861 28.8839C37.8881 28.0408 37.3356 27.3111 36.605 26.7956C35.8744 26.28 35.0018 26.0041 34.1076 26.0059H34.0899C33.1955 26.0096 32.3244 26.2912 31.597 26.8116C30.8697 27.332 30.322 28.0656 30.0297 28.9108C29.7374 29.7561 29.715 30.6713 29.9656 31.5299C30.2161 32.3885 30.7272 33.148 31.4283 33.7034C30.3013 34.2249 29.3478 35.0591 28.6811 36.1067C28.0144 37.1543 27.6625 38.3714 27.6672 39.6132L27.6849 42.3352C27.6861 42.5435 27.7691 42.7429 27.9161 42.8904C28.0631 43.038 28.2622 43.1217 28.4704 43.1237ZM32.1696 28.4007C32.4221 28.1464 32.7224 27.9445 33.0532 27.8067C33.3841 27.6689 33.7389 27.5978 34.0973 27.5975H34.1076C34.8319 27.596 35.5271 27.8822 36.0403 28.3932C36.5536 28.9043 36.8428 29.5983 36.8444 30.3225C36.8459 31.0468 36.5597 31.742 36.0487 32.2553C35.5376 32.7685 34.8437 33.0578 34.1194 33.0593H34.1091C33.5698 33.0595 33.0426 32.8999 32.5939 32.6009C32.1451 32.3018 31.795 31.8766 31.5876 31.3789C31.3801 30.8811 31.3247 30.3331 31.4283 29.8039C31.5319 29.2747 31.7898 28.788 32.1696 28.4052V28.4007Z" fill="white"/>
<path d="M46.3559 29.5548H67.6489C67.8591 29.5548 68.0608 29.4712 68.2095 29.3225C68.3582 29.1738 68.4417 28.9722 68.4417 28.7619C68.4417 28.5516 68.3582 28.3499 68.2095 28.2012C68.0608 28.0525 67.8591 27.969 67.6489 27.969H46.3559C46.1456 27.969 45.9439 28.0525 45.7952 28.2012C45.6465 28.3499 45.563 28.5516 45.563 28.7619C45.563 28.9722 45.6465 29.1738 45.7952 29.3225C45.9439 29.4712 46.1456 29.5548 46.3559 29.5548Z" fill="white"/>
<path d="M46.3559 35.5235H67.6489C67.8591 35.5235 68.0608 35.44 68.2095 35.2913C68.3582 35.1426 68.4417 34.9409 68.4417 34.7306C68.4417 34.5203 68.3582 34.3187 68.2095 34.17C68.0608 34.0213 67.8591 33.9377 67.6489 33.9377H46.3559C46.2518 33.9377 46.1486 33.9583 46.0525 33.9981C45.9563 34.0379 45.8688 34.0963 45.7952 34.17C45.7216 34.2436 45.6632 34.331 45.6233 34.4272C45.5835 34.5234 45.563 34.6265 45.563 34.7306C45.563 34.8348 45.5835 34.9379 45.6233 35.0341C45.6632 35.1303 45.7216 35.2177 45.7952 35.2913C45.8688 35.3649 45.9563 35.4233 46.0525 35.4632C46.1486 35.503 46.2518 35.5235 46.3559 35.5235V35.5235Z" fill="white"/>
<path d="M46.3559 41.4925H67.6489C67.8591 41.4925 68.0608 41.409 68.2095 41.2603C68.3582 41.1116 68.4417 40.9099 68.4417 40.6996C68.4417 40.4893 68.3582 40.2877 68.2095 40.139C68.0608 39.9903 67.8591 39.9067 67.6489 39.9067H46.3559C46.1456 39.9067 45.9439 39.9903 45.7952 40.139C45.6465 40.2877 45.563 40.4893 45.563 40.6996C45.563 40.9099 45.6465 41.1116 45.7952 41.2603C45.9439 41.409 46.1456 41.4925 46.3559 41.4925V41.4925Z" fill="white"/>
<path d="M28.4603 48.5916H67.6493C67.8539 48.5828 68.0471 48.4954 68.1887 48.3475C68.3304 48.1996 68.4094 48.0028 68.4094 47.798C68.4094 47.5933 68.3304 47.3964 68.1887 47.2485C68.0471 47.1007 67.8539 47.0132 67.6493 47.0044H28.4603C28.2558 47.0132 28.0625 47.1007 27.9209 47.2485C27.7793 47.3964 27.7002 47.5933 27.7002 47.798C27.7002 48.0028 27.7793 48.1996 27.9209 48.3475C28.0625 48.4954 28.2558 48.5828 28.4603 48.5916V48.5916Z" fill="white"/>
<path d="M52.9691 55.0701H28.4603C28.2558 55.0789 28.0625 55.1664 27.9209 55.3142C27.7793 55.4621 27.7002 55.6589 27.7002 55.8637C27.7002 56.0685 27.7793 56.2653 27.9209 56.4132C28.0625 56.561 28.2558 56.6485 28.4603 56.6573H52.9691C53.0762 56.6619 53.1831 56.6448 53.2834 56.607C53.3837 56.5692 53.4754 56.5115 53.5528 56.4374C53.6302 56.3632 53.6918 56.2742 53.7339 56.1756C53.776 56.077 53.7977 55.9709 53.7977 55.8637C53.7977 55.7565 53.776 55.6504 53.7339 55.5518C53.6918 55.4532 53.6302 55.3642 53.5528 55.29C53.4754 55.2159 53.3837 55.1582 53.2834 55.1204C53.1831 55.0826 53.0762 55.0655 52.9691 55.0701Z" fill="white"/>
<path d="M81.4671 60.3753C81.467 58.8969 81.1234 57.4388 80.4632 56.116C79.8031 54.7932 78.8446 53.6419 77.6633 52.753V20.7929C77.6633 20.6886 77.6427 20.5854 77.6028 20.4891C77.5629 20.3928 77.5043 20.3054 77.4305 20.2317C77.3568 20.1581 77.2692 20.0997 77.1728 20.0599C77.0764 20.0202 76.9732 19.9998 76.8689 20H19.7929C19.5826 20 19.3809 20.0835 19.2322 20.2322C19.0835 20.3809 19 20.5826 19 20.7929V66.4001C19 66.6104 19.0835 66.812 19.2322 66.9607C19.3809 67.1094 19.5826 67.193 19.7929 67.193H65.2394C65.5112 67.4588 65.7981 67.7088 66.0986 67.9416C66.0934 67.9802 66.0905 68.0191 66.0898 68.0581V79.2042C66.0895 79.3616 66.1358 79.5155 66.2229 79.6467C66.31 79.7778 66.4339 79.8802 66.5791 79.9411C66.7244 79.9995 66.8837 80.0143 67.0373 79.9837C67.191 79.953 67.3323 79.8783 67.4442 79.7686L71.9185 75.2928L76.3929 79.7686C76.4667 79.8422 76.5543 79.9005 76.6506 79.9402C76.747 79.9799 76.8502 80.0002 76.9544 80C77.0585 80.0001 77.1616 79.9801 77.258 79.9411C77.4032 79.8802 77.5271 79.7778 77.6142 79.6467C77.7013 79.5155 77.7476 79.3616 77.7473 79.2042V68.0581C77.7466 68.0191 77.7436 67.9802 77.7385 67.9416C78.8982 67.0505 79.8377 65.9048 80.4842 64.5928C81.1307 63.2809 81.467 61.8379 81.4671 60.3753ZM79.8813 60.3753C79.8813 61.9493 79.4146 63.488 78.5401 64.7967C77.6656 66.1055 76.4227 67.1255 74.9685 67.7279C73.5143 68.3302 71.9141 68.4878 70.3704 68.1807C68.8266 67.8737 67.4086 67.1157 66.2956 66.0027C65.1826 64.8897 64.4246 63.4717 64.1175 61.9279C63.8105 60.3841 63.9681 58.784 64.5704 57.3298C65.1728 55.8756 66.1928 54.6327 67.5016 53.7582C68.8103 52.8837 70.349 52.417 71.923 52.417C74.0326 52.4205 76.0548 53.2601 77.5465 54.7518C79.0382 56.2435 79.8778 58.2657 79.8813 60.3753V60.3753ZM20.5858 21.5858H76.076V51.7803C74.1965 50.8723 72.0712 50.6054 70.0256 51.0205C67.9799 51.4356 66.1267 52.5098 64.7497 54.0785C63.3728 55.6473 62.548 57.6241 62.4017 59.7063C62.2553 61.7885 62.7956 63.8613 63.9396 65.6072H20.5858V21.5858ZM76.1615 77.2942L72.4771 73.6097C72.4034 73.5359 72.3159 73.4772 72.2196 73.4372C72.1232 73.3973 72.0199 73.3767 71.9156 73.3767C71.8113 73.3767 71.708 73.3973 71.6116 73.4372C71.5153 73.4772 71.4278 73.5359 71.3541 73.6097L67.6697 77.2942V68.9291C68.9881 69.5843 70.4404 69.9253 71.9127 69.9253C73.3849 69.9253 74.8372 69.5843 76.1556 68.9291L76.1615 77.2942Z" fill="white"/>
<path d="M71.9185 55.0701C70.8691 55.0701 69.8434 55.3812 68.9709 55.9642C68.0984 56.5472 67.4183 57.3758 67.0168 58.3453C66.6152 59.3147 66.5101 60.3815 66.7149 61.4107C66.9196 62.4399 67.4249 63.3852 68.1669 64.1272C68.9089 64.8692 69.8542 65.3745 70.8834 65.5792C71.9126 65.784 72.9794 65.6789 73.9488 65.2773C74.9183 64.8758 75.7469 64.1957 76.3299 63.3232C76.9129 62.4507 77.224 61.425 77.224 60.3756C77.224 58.9685 76.6651 57.619 75.6701 56.624C74.6751 55.629 73.3256 55.0701 71.9185 55.0701ZM71.9185 64.0954C71.1828 64.0954 70.4636 63.8773 69.8519 63.4685C69.2402 63.0598 68.7634 62.4788 68.4818 61.7991C68.2003 61.1194 68.1266 60.3715 68.2702 59.6499C68.4137 58.9284 68.768 58.2656 69.2882 57.7453C69.8084 57.2251 70.4712 56.8708 71.1928 56.7273C71.9144 56.5838 72.6623 56.6575 73.342 56.939C74.0217 57.2205 74.6026 57.6973 75.0114 58.309C75.4201 58.9207 75.6383 59.6399 75.6383 60.3756C75.6375 61.3619 75.2453 62.3076 74.5479 63.0051C73.8505 63.7025 72.9048 64.0946 71.9185 64.0954V64.0954Z" fill="white"/>
<defs>
<linearGradient id="paint0_linear_180_159" x1="4.51957e-07" y1="56.9232" x2="100.433" y2="55.7578" gradientUnits="userSpaceOnUse">
<stop stop-color="#1BAAE6"/>
<stop offset="1" stop-color="#0761A3"/>
</linearGradient>
</defs>
</svg>
