<svg width="100" height="100" viewBox="0 0 100 100" fill="none" xmlns="http://www.w3.org/2000/svg">
<circle cx="50" cy="50" r="50" fill="url(#paint0_linear_180_109)"/>
<path d="M77.6011 49.5124L77.609 49.5138L77.617 49.5151C78.2117 49.6121 78.7543 49.9127 79.1518 50.3656C79.5486 50.8177 79.7762 51.3935 79.7958 51.9946C79.8701 55.0901 79.6208 58.1849 79.052 61.2286L79.0418 61.2831C77.2756 70.4174 72.6975 76.3967 65.9278 78.8499L65.9234 78.8515C65.6549 78.9502 65.371 79.0005 65.0849 78.9999L65.0814 78.9999C64.7831 79.0005 64.4869 78.9501 64.2055 78.8509C57.4374 76.4616 52.8596 70.4823 51.1024 61.2668L51.0959 61.2314C50.5356 58.1899 50.2803 55.1001 50.3339 52.0079C50.3535 51.4056 50.5806 50.8285 50.9768 50.3743C51.3743 49.9185 51.9174 49.6146 52.5138 49.5143L52.5138 49.5144L52.5248 49.5124C54.7895 49.1052 56.9468 47.9125 58.754 46.6021C60.572 45.284 62.1047 43.7959 63.1245 42.7136L63.1275 42.7104C63.3768 42.4435 63.6788 42.2311 64.0143 42.0867C64.322 41.9542 64.6518 41.8816 64.9861 41.8724L65.0883 41.8934L65.1824 41.8743C65.5087 41.8902 65.8296 41.9658 66.1291 42.0977C66.4585 42.2427 66.7552 42.4529 67.0013 42.7155L67.0031 42.7174C68.0209 43.7977 69.5519 45.2849 71.3694 46.6026C73.1762 47.9126 75.334 49.1053 77.6011 49.5124ZM63.7474 60.8262H64.7474V59.8262V44.4792V42.0387L63.035 43.7775C60.3645 46.4889 56.6313 49.4505 52.6644 50.1723C52.2296 50.2336 51.8283 50.4415 51.5274 50.7621C51.2189 51.0908 51.0352 51.5171 51.0084 51.9671L51.0071 51.9887L51.0067 52.0103C50.9629 54.678 51.1481 57.3446 51.5601 59.9806L51.6922 60.8262H52.5481H63.7474ZM65.4199 76.8521V78.3817L66.821 77.7681C72.5477 75.2602 76.2788 70.132 78.0419 62.7304L78.3353 61.4987H77.0691H66.4199H65.4199V62.4987V76.8521Z" stroke="white" stroke-width="2"/>
<path d="M35.5962 47.3894L35.5841 47.3891C34.9744 47.3742 34.3947 47.1216 33.9687 46.6852C33.5428 46.2487 33.3043 45.663 33.3043 45.0532C33.3043 44.4433 33.5428 43.8576 33.9687 43.4212C34.3947 42.9847 34.9744 42.7321 35.5841 42.7172L35.5962 42.7169H35.6084H41.3565H41.3643L41.3643 42.717C41.4451 42.7176 41.5251 42.7022 41.5999 42.6718C41.6747 42.6413 41.7427 42.5963 41.8001 42.5395C41.8574 42.4826 41.9029 42.4149 41.9339 42.3404C41.965 42.2658 41.981 42.1859 41.981 42.1051C41.981 42.0244 41.965 41.9444 41.9339 41.8699C41.9029 41.7953 41.8574 41.7277 41.8001 41.6708C41.7427 41.6139 41.6747 41.5689 41.5999 41.5385C41.5251 41.508 41.4451 41.4927 41.3643 41.4933L41.3565 41.4933V41.4933H38.779H38.7778L35.5962 47.3894ZM35.5962 47.3894H35.6084M35.5962 47.3894H35.6084M35.6084 47.3894H37.6203V48.5967C37.6146 48.9035 37.6695 49.2086 37.7818 49.4943C37.8958 49.7844 38.0666 50.0487 38.2843 50.2717C38.5019 50.4947 38.762 50.672 39.0492 50.793C39.3364 50.914 39.6448 50.9763 39.9565 50.9763C40.2681 50.9763 40.5766 50.914 40.8638 50.793C41.151 50.672 41.4111 50.4947 41.6287 50.2717C41.8464 50.0487 42.0172 49.7844 42.1312 49.4943C42.2435 49.2086 42.2984 48.9035 42.2927 48.5967V47.3095C42.665 47.244 43.0302 47.1386 43.3817 46.9944C44.0257 46.7304 44.6113 46.3417 45.1046 45.8507C45.598 45.3596 45.9895 44.776 46.2567 44.1332C46.5238 43.4904 46.6614 42.8012 46.6614 42.1051C46.6614 41.409 46.5238 40.7198 46.2567 40.077C45.9895 39.4343 45.598 38.8506 45.1046 38.3596C44.6113 37.8686 44.0257 37.4799 43.3817 37.2158C42.7384 36.9521 42.0494 36.8179 41.3542 36.8209H38.8217L38.7851 36.8206C38.5652 36.819 38.3548 36.7305 38.1999 36.5744C38.045 36.4183 37.958 36.2073 37.958 35.9874C37.958 35.7675 38.045 35.5564 38.1999 35.4004C38.3541 35.245 38.5633 35.1566 38.7821 35.1542H44.5629C44.8698 35.1598 45.1748 35.105 45.4605 34.9927C45.7506 34.8787 46.0149 34.7079 46.2379 34.4902C46.4609 34.2725 46.6382 34.0125 46.7592 33.7253C46.8802 33.4381 46.9425 33.1296 46.9425 32.818C46.9425 32.5063 46.8802 32.1978 46.7592 31.9107C46.6382 31.6235 46.4609 31.3634 46.2379 31.1457C46.0149 30.9281 45.7506 30.7572 45.4605 30.6432C45.1748 30.531 44.8698 30.4761 44.5629 30.4817H42.2927V29.264V29.2518L42.2924 29.2396C42.2776 28.6299 42.0249 28.0502 41.5885 27.6243C41.152 27.1983 40.5663 26.9599 39.9565 26.9599C39.3466 26.9599 38.7609 27.1983 38.3245 27.6243C37.888 28.0502 37.6354 28.6299 37.6206 29.2396L37.6203 29.2518M35.6084 47.3894L37.6203 29.2518M37.6203 29.2518V29.264M37.6203 29.2518V29.264M37.6203 29.264V30.6174V29.264ZM59.1741 40.067C56.4087 42.8622 53.6976 44.5522 51.7008 44.9124C50.0406 45.2018 48.5319 46.0571 47.431 47.3331C46.3295 48.6098 45.7044 50.2288 45.6622 51.9144L45.6621 51.9144L45.6619 51.9256C45.6325 54.0381 45.7296 56.1502 45.9527 58.2506C42.3456 59.4154 38.4669 59.4816 34.8128 58.431C30.9079 57.3082 27.4632 54.9687 24.98 51.7529C22.4967 48.5371 21.1044 44.6127 21.0056 40.5509C20.9069 36.489 22.1069 32.5017 24.431 29.169C26.7551 25.8363 30.0821 23.3322 33.9278 22.0211C37.7734 20.71 41.9372 20.6602 45.8131 21.8791C49.6889 23.098 53.0748 25.5219 55.4778 28.7981C57.8754 32.0668 59.1699 36.0137 59.1741 40.067Z" stroke="white" stroke-width="2"/>
<defs>
<linearGradient id="paint0_linear_180_109" x1="4.51957e-07" y1="56.9232" x2="100.433" y2="55.7578" gradientUnits="userSpaceOnUse">
<stop stop-color="#E61386"/>
<stop offset="1" stop-color="#842186"/>
</linearGradient>
</defs>
</svg>
