<svg width="22" height="14" viewBox="0 0 22 14" fill="none" xmlns="http://www.w3.org/2000/svg">
<path fill-rule="evenodd" clip-rule="evenodd" d="M0.825195 7C0.825195 6.58579 1.16098 6.25 1.5752 6.25L19.5759 6.25C19.9901 6.25 20.3259 6.58579 20.3259 7C20.3259 7.41421 19.9901 7.75 19.5759 7.75L1.5752 7.75C1.16098 7.75 0.825195 7.41421 0.825195 7Z" fill="white"/>
<path fill-rule="evenodd" clip-rule="evenodd" d="M15.0953 0.423862C15.4135 0.158683 15.8864 0.201667 16.1516 0.51987L20.885 6.19977C21.2714 6.66333 21.2714 7.3367 20.885 7.80027L16.1516 13.4802C15.8864 13.7984 15.4135 13.8414 15.0953 13.5762C14.7771 13.311 14.7341 12.8381 14.9993 12.5199L19.5994 7.00002L14.9993 1.48017C14.7341 1.16197 14.7771 0.689041 15.0953 0.423862Z" fill="white"/>
</svg>
