<svg width="175" height="30" viewBox="0 0 175 30" fill="none" xmlns="http://www.w3.org/2000/svg">
<path d="M0.799217 28.8681L4.86812 29.2008L5.20078 25.1319L1.13188 24.7992L0.799217 28.8681ZM173.97 27.4991C174.245 27.5158 174.482 27.3059 174.499 27.0303L174.772 22.5386C174.788 22.2629 174.579 22.0259 174.303 22.0092C174.027 21.9925 173.79 22.2023 173.774 22.478L173.531 26.4706L169.539 26.2283C169.263 26.2116 169.026 26.4214 169.009 26.6971C168.992 26.9727 169.202 27.2097 169.478 27.2264L173.97 27.4991ZM3 27C3.32357 27.3812 3.32351 27.3812 3.32357 27.3812C3.32374 27.381 3.32392 27.3809 3.32427 27.3806C3.32496 27.38 3.32613 27.379 3.32776 27.3776C3.33103 27.3749 3.33616 27.3706 3.34315 27.3647C3.35714 27.353 3.37859 27.3352 3.40748 27.3114C3.46527 27.2638 3.55286 27.1924 3.67016 27.0988C3.90476 26.9117 4.25821 26.6356 4.72987 26.2834C5.67321 25.5791 7.08935 24.5701 8.97323 23.358C12.741 20.9337 18.3794 17.6969 25.8479 14.4587C40.7839 7.98284 63.0421 1.5 92.3027 1.5V0.5C62.8904 0.5 40.4973 7.01716 25.4501 13.5413C17.9271 16.8031 12.241 20.0663 8.43213 22.517C6.52769 23.7424 5.0925 24.7647 4.13157 25.4822C3.65111 25.8409 3.28919 26.1235 3.04647 26.3172C2.9251 26.414 2.83353 26.4886 2.77183 26.5394C2.74098 26.5648 2.7176 26.5843 2.7017 26.5976C2.69375 26.6042 2.68766 26.6093 2.68345 26.6129C2.68135 26.6147 2.67971 26.616 2.67854 26.617C2.67795 26.6175 2.67743 26.618 2.67713 26.6182C2.67672 26.6186 2.67643 26.6188 3 27ZM92.3027 1.5C121.562 1.5 141.91 7.98227 154.931 14.4478C161.443 17.6812 166.125 20.9119 169.175 23.3293C170.7 24.5381 171.817 25.5435 172.551 26.2443C172.917 26.5948 173.188 26.869 173.367 27.0544C173.456 27.1471 173.521 27.2176 173.565 27.2643C173.586 27.2877 173.602 27.3051 173.612 27.3163C173.617 27.322 173.621 27.3261 173.623 27.3286C173.624 27.3299 173.625 27.3307 173.625 27.3312C173.626 27.3315 173.626 27.3315 173.626 27.3316C173.626 27.3316 173.626 27.3315 174 27C174.374 26.6685 174.374 26.6682 174.374 26.6678C174.373 26.6675 174.373 26.667 174.372 26.6664C174.371 26.6653 174.37 26.6638 174.368 26.6619C174.365 26.6582 174.36 26.6528 174.354 26.646C174.342 26.6322 174.324 26.6123 174.3 26.5865C174.252 26.5348 174.182 26.4593 174.088 26.3616C173.9 26.1662 173.619 25.8818 173.241 25.5213C172.487 24.8002 171.347 23.7744 169.796 22.5457C166.696 20.0881 161.955 16.8188 155.376 13.5522C142.216 7.01773 121.716 0.5 92.3027 0.5V1.5Z" fill="url(#paint0_linear_173_228)"/>
<defs>
<linearGradient id="paint0_linear_173_228" x1="92" y1="1" x2="92" y2="27" gradientUnits="userSpaceOnUse">
<stop stop-color="#1A1B20"/>
<stop offset="1" stop-color="#11C5FF"/>
</linearGradient>
</defs>
</svg>
